<svg xmlns="http://www.w3.org/2000/svg" viewBox="0 0 706.21155 884.47321">
  <g>
    <path d="M642.524,755.21787c-1.599,3.73257-3.52805,6.75845-4.15028,10.03278-.94194,4.95587-3.64651,5.77239-8.12237,5.7054-15.87046-.23762-31.74649-.09878-47.62053-.08735q-30.22134.02176-60.44267.0637c-4.98707.00358-9.2423,1.26692-11.46875,6.30448-3.86187,8.73813,1.21793,16.83476,10.78033,16.85027q51.89559.08408,103.79158.0147c2.3952-.00029,4.7905,0,6.49022,0,3.88235,14.93539,7.543,29.01777,11.31471,43.5276-1.79672.08716-3.56244.24746-5.32815.24776q-273.20828.05009-546.41655.11608c-17.50728.00815-31.10747-7.413-41.03689-21.30356-10.74088-15.02552-11.96576-31.53044-3.55836-47.84047,8.07436-15.66395,20.90454-25.16106,39.41031-25.13065q34.494.05664,68.988.086c1.55811.00338,3.11562.2891,5.19647.49542,0,2.75-.001,5.14907.0001,7.54814.00855,17.90908-.14072,35.821.18972,53.72426.05208,2.82493,1.60979,7.01416,3.68845,7.99625,1.87126.884,5.82208-1.23263,8.12386-2.98642a76.8607,76.8607,0,0,0,9.56639-9.38819c3.80989-4.14054,7.41526-8.46911,11.4432-13.101,8.591,8.35551,15.5282,15.48744,22.94376,22.08132,2.24086,1.9927,6.00375,3.7944,8.72323,3.38474,4.49961-.67778,4.23674-5.33918,4.24181-8.98132.02316-16.68748-.05674-33.37526-.0961-50.06294-.008-3.4073-.00119-6.8145-.00119-10.73591,3.21788,0,5.63047-.0001,8.04316.0001q155.686.01551,311.372.00865,48.53266-.02355,97.06472-.50357c10.01082-.08726,17.94884-4.47476,23.68922-12.78844,5.64528-8.17583,7.66909-17.34032,7.68907-27.09175q.0796-38.76885.14967-77.53781.0544-218.87774.05456-437.75556c-.0002-6.15243.44563-11.6856,4.82339-16.98354,20.00216-24.2063,27.19521-52.25888,23.0019-83.19521-7.39529-54.55848-56.537-98.04543-121.236-85.87266-27.86922,5.24348-50.1009,19.80777-66.58584,42.7081-3.99992,5.55673-8.29589,6.97719-14.66278,6.96616q-136.45493-.23718-272.91043-.09421c-5.49481.00049-10.99132.12512-16.48384.02216-5.56806-.10435-8.236,2.76967-8.60418,8.04465-.16954,2.42869.00179,4.88044.0006,7.32175-.01988,43.34732.02266,86.695-.21208,130.04126a14.128,14.128,0,0,1-3.4069,8.47716c-10.8985,12.35325-22.128,24.41471-33.28155,36.54186-1.24127,1.34961-2.71391,2.48624-5.00764,4.56172,0-3.3434-.0008-5.14916.0001-6.95483q.04143-88.22263.09689-176.44517c.01034-10.74753-.7062-11.5894-11.19833-11.60391-17.29848-.02385-34.59934-.19617-51.89454.04a117.13162,117.13162,0,0,0-21.22267,1.79066C32.03313,62.73615.57047,100.86166.18636,148.32308-.087,182.10352.02118,215.88744.02089,249.66986Q.01864,518.91713.13428,788.16429c.00646,9.10536.35191,18.38671,2.0897,27.28346,6.53037,33.4334,39.76749,69.46027,86.06039,69.0215,108.05594-1.02453,216.12759-.41691,324.19287-.42q112.33826-.00313,224.67661.09292c21.06783-.01,34.57619-9.50059,41.75045-29.23313,5.58963-15.37405,5.51986-31.12367,1.52959-46.79984C674.75373,785.79464,662.05145,768.40264,642.524,755.21787ZM177.14642,604.46346c-7.78377,2.06307-15.02363-6.03893-13.25295-14.5614,1.89134-9.10337,5.03548-17.95013,7.70855-26.88614,1.382-4.62005,2.92818-9.191,4.63615-14.52,16.31172,12.66391,31.3769,25.3797,43.88558,42.37765C205.1818,595.67752,191.33187,600.70366,177.14642,604.46346Zm70.27023-56.18684c-11.97252-10.93367-23.88173-21.9398-35.60748-33.13644-1.44153-1.37644-2.85692-4.33016-2.35455-5.95684,6.16445-19.9632,12.687-39.81579,19.13714-59.69045.11161-.344.47435-.60642,1.20342-1.49828,28.29765,26.515,56.54988,52.98715,85.88617,80.47534-22.2308,7.46038-42.95944,14.46888-63.75725,21.2656C250.68581,550.14013,248.50458,549.27014,247.41665,548.27662ZM445.99889,581.565c-31.32591,6.15362-63.00482,5.94233-94.69993,5.52056-22.3587-.29765-44.67477-1.115-66.48249-6.82275-.92932-.24329-1.83876-.5628-2.75745-.84674q-.11016-.73806-.22023-1.476c15.98505-5.255,31.89795-10.74585,47.988-15.6565,7.09268-2.16453,12.00541-6.03853,16.81628-11.81947q36.66023-44.05214,74.47536-87.14086c37.39376-42.64847,75.19509-84.93976,112.82915-127.37754,1.34165-1.51289,2.74979-2.96684,4.55884-4.91293a31.03922,31.03922,0,0,1,2.5552,4.1148c8.00073,19.27876,13.79637,39.11674,13.65724,60.19381-.14878,22.55527.48627,45.20725-1.35279,67.64227C548.47446,522.659,504.98989,569.97692,445.99889,581.565ZM591.93308,703.67066a39.44636,39.44636,0,0,1-39.75358-39.925c.17671-23.03141,17.75822-40.43693,40.74382-40.33576,21.64266.09521,39.6537,18.31317,39.41747,39.87015C632.095,685.70046,614.02236,703.76557,591.93308,703.67066ZM563.65064,51.34323C592.99557,27.91717,635.96753,34.298,655.53509,63.1138c16.79243,24.72875,17.57615,58.24225.07861,82.51733-10.97909,15.23193-24.29078,28.78253-36.94753,43.54419-33.357-31.54564-65.91164-62.3324-99.3035-93.911C534.26863,80.28259,547.62275,64.13823,563.65064,51.34323ZM495.856,123.36644c32.71736,31.09942,65.25473,62.02781,98.00846,93.162-21.53741,23.9664-42.68614,47.50038-64.33465,71.59061-33.27429-31.64662-66.10683-62.87314-99.22012-94.36671C452.174,170.27382,473.76992,147.08339,495.856,123.36644Zm7.787,190.45372c-55.151,62.245-109.97063,124.11593-165.03715,186.26558-31.43383-29.91986-62.01478-59.02807-92.79727-88.32788,56.71555-61.14927,112.70681-121.5176,169.16755-182.39218C444.7113,257.68818,474.10166,285.68222,503.643,313.82016Zm-340.93979,40.8916c1.19487-41.71965,19.48995-75.796,50.73864-102.94454,30.13193-26.17814,65.90339-38.93766,105.27852-41.24222,20.78419-1.21643,41.69818-.21506,63.25447-.21506-13.38781,14.23732-26.71539,28.18922-39.79929,42.36612q-60.18582,65.214-120.21908,130.56908a12.90522,12.90522,0,0,1-1.20311,1.37634c-14.03071,11.38646-20.78847,26.70387-25.38517,43.805-5.74089,21.35713-12.92777,42.32618-19.51976,63.45354-.6586,2.11077-1.52064,4.15813-2.63849,7.18281a117.9621,117.9621,0,0,1-10.243-44.92182C162.27574,421.007,161.75478,387.82813,162.70318,354.71176ZM68.48067,163.15014c12.1352-2.61742,24.99043-1.97909,37.5321-2.50611,1.31323-.05526,3.87032,1.97869,3.89835,3.09246.2898,11.52291.17819,23.056.17819,35.53592-32.51621-2.77315-62.43785,2.638-87.762,24.639C20.4003,197.53005,41.54863,168.95929,68.48067,163.15014ZM21.59586,620.01193c4.35312-49.57716,39.61713-70.00368,88.05826-63.3943V594.8451C77.51517,592.0011,47.58249,597.45924,21.59586,620.01193Z"/>
    <path d="M274.39739,770.98318c-7.78338.08527-12.0718,4.42855-11.97659,11.55442.09441,7.06,4.57285,11.41687,12.12318,11.52957,7.524.1122,15.051.02465,22.57664.02465V794.073c7.72911,0,15.46012.10873,23.18665-.031,7.45392-.13467,12.29361-4.87656,12.1354-11.57121-.1615-6.82922-4.92943-11.53087-12.28279-11.57946Q297.27963,770.74,274.39739,770.98318Z"/>
    <path d="M82.072,771.76184c-5.86025.47663-9.7895,6.3655-9.22124,12.20984A11.00911,11.00911,0,0,0,83.76816,794.0953c3.85035.1124,7.70656.02116,11.56018.02116v-.06559c4.05647,0,8.11681.11131,12.1687-.02484,6.79075-.22828,11.596-4.5015,12.0229-10.495a11.4144,11.4144,0,0,0-10.75758-12.40989A221.29265,221.29265,0,0,0,82.072,771.76184Z"/>
    <path d="M502.32914,492.72274q-37.78841.25686-75.57542.717c-7.42441.09153-12.457,4.83234-12.39995,11.27377.05317,5.99152,5.27975,10.725,12.283,10.78182,12.59723.10236,25.19585.02892,37.79387.02892l.0001.09779c12.59822,0,25.19674.05784,37.79437-.02087,8.12157-.05069,13.457-4.80958,13.47407-11.76888C515.71516,497.33833,510.26736,492.66878,502.32914,492.72274Z"/>
    <path d="M446.36561,531.67908c-16.42442-.07334-32.85172.161-49.27564.40955-7.33526.111-11.34313,4.09165-11.21075,10.65333.1279,6.33916,4.605,10.71007,11.39113,10.80686,8.31378.11857,16.63034.02823,24.9458.02823v-.04075q6.38866,0,12.77741-.00149c4.2592-.00656,8.52168-.13725,12.77651-.00775a10.1517,10.1517,0,0,0,10.21724-6.21523C461.741,539.46534,456.16783,531.72281,446.36561,531.67908Z"/>
    <path d="M508.33716,444.71919c-6.91776-.12432-13.8395-.02743-20.75944-.02743v.03846c-7.53026,0-15.06786-.20234-22.58877.06261-6.25409.22033-11.402,5.68722-11.35893,11.442.03995,5.35657,5.26623,10.18484,11.58284,10.23472,14.4494.1139,28.90248.15951,43.3501-.045,7.13163-.101,12.04924-5.10722,11.84491-11.31808C520.21606,449.2821,515.186,444.84233,508.33716,444.71919Z"/>
    <path d="M512.72089,405.73761a114.32825,114.32825,0,0,0-12.78893-.0326c-6.58851.33234-11.17836,5.10952-11.1724,11.28529.00607,6.151,4.631,10.47215,11.46448,10.67211,1.82663.05337,3.65625.008,5.48448.008v-.06062c2.2343,0,4.47426.10286,6.7017-.01978,6.05652-.33373,11.183-5.31782,11.11833-10.70232A11.537,11.537,0,0,0,512.72089,405.73761Z"/>
    <path d="M234.30293,284.85566c8.53311.12423,17.06941.03021,25.60441.02365,8.73784-.00656,17.47786.11419,26.21282-.0469,6.36341-.11737,10.88289-4.706,10.95365-10.67141A10.8993,10.8993,0,0,0,286.439,263.02021c-17.67255-.08984-35.35256.03309-53.01815.50525-6.67845.17849-10.70371,5.0641-10.40815,11.08872C223.31121,280.69912,227.639,284.75866,234.30293,284.85566Z"/>
    <path d="M206.96968,330.954q17.33535.18246,34.67329.0955c7.78635-.04422,12.92608-4.77082,12.84936-11.52-.07484-6.57559-4.88014-10.83986-12.654-11.00344-5.87594-.12363-11.75656-.02455-17.63509-.02455l.0008.46272c-5.67758,0-11.35555-.043-17.03263.01044-7.91347.07444-12.53492,4.05924-12.61989,10.78619C194.46965,326.23781,199.49011,330.87526,206.96968,330.954Z"/>
    <path d="M205.12744,372.74855c6.82206.04045,12.60906-5.53368,12.53353-12.0723a12.44568,12.44568,0,0,0-12.15657-11.91884A11.7789,11.7789,0,0,0,193.27,360.35287C193.12183,367.66547,197.94334,372.70591,205.12744,372.74855Z"/>
  </g>
</svg>
